<?xml version="1.0" encoding="utf-8"?>
<!-- Generator: Adobe Illustrator 17.0.0, SVG Export Plug-In . SVG Version: 6.00 Build 0)  -->
<!DOCTYPE svg PUBLIC "-//W3C//DTD SVG 1.1//EN" "http://www.w3.org/Graphics/SVG/1.1/DTD/svg11.dtd">
<svg version="1.1" id="Layer_1" xmlns="http://www.w3.org/2000/svg" xmlns:xlink="http://www.w3.org/1999/xlink" x="0px" y="0px"
	 width="960px" height="560px" viewBox="0 0 960 560" enable-background="new 0 0 960 560" xml:space="preserve">
<path d="M518.9,536.7C381.3,534.1,278,428.3,280.5,292.5C283,162.7,392.5,58.1,522.9,61C655,64.1,759,171.9,756.7,303.4
	C754.4,432.3,645.6,539.2,518.9,536.7z M524.1,147c-2.7,0.1-5.5,0.3-8.3,0.4c-5.1,55.9-10.2,111.6-15.4,168.8c13.4,0,23.9,0,36.2,0
	C532.5,258.6,528.3,202.8,524.1,147z M672.8,348.9c-27.7,0-53.9,0-80.3,0c0,14.2,0,27.1,0,40.9c27,0,53.3,0,80.3,0
	C672.8,375.5,672.8,363.1,672.8,348.9z M528.1,498.9c-0.9-0.4-1.8-0.7-2.7-1c0-4.5,1-9.4-0.3-13.5c-1.3-4.5-4.7-8.3-7.2-12.4
	c-2.1,3.8-4.9,7.4-5.9,11.5c-1,4.3-1.1,9.3-0.1,13.5c2.1,8.1-6.8,20.3,7.4,23.1C520.8,520.4,525.1,506.3,528.1,498.9z M512.5,125.3
	c13.6-2,15.8-8.4,12.4-38.2c-0.5-4.1-5.4-7.6-8.2-11.4c-1.5,1-2.8,2-4.3,2.9C512.5,93.7,512.5,108.7,512.5,125.3z M412.9,434
	c-7.2-0.5-12.7-2.5-14.4-0.6c-8.3,8.4-15.7,17.5-22.9,26.9c-1.4,1.7,0,5.5,0.2,8.4c3.2-0.6,7.6-0.1,9.4-2
	C393.9,457.1,401.9,447.1,412.9,434z M454.4,136.8c10.4-7.5,9.1-15.3-7-46.4C436.1,95.1,437,101.5,454.4,136.8z M370.9,207
	c-13.1-7.5-23.7-14-34.7-19.8c-2.3-1.2-6.3-0.9-8.6,0.3c-1.2,0.5-1.7,6.4-0.8,7c12.1,7.3,24.3,14.2,36.9,20.5
	C364.3,215.2,367.6,210.6,370.9,207z M448.1,509c4.8-13.1,9.4-25,13.4-37.1c0.8-2.5-0.3-6-1.6-8.4c-0.7-1.2-5.7-1.5-5.8-1.3
	c-5,14.4-9.7,28.8-14.1,43.3C439.9,505.8,444.5,507.5,448.1,509z M401,168.3c1.8-0.5,3.7-1,5.5-1.5c-0.9-4.5-0.4-10-2.9-13.4
	c-21.1-27.9-21.3-27.7-31.8-19.9C381.7,145.1,391.4,156.6,401,168.3z M299,260.7c0.5,1.8,1,3.7,1.5,5.5c12.6,2.4,25.3,5,38,6.8
	c2.4,0.4,5.3-2.4,7.9-3.6c-2-2.6-3.6-7-6.1-7.6c-10.4-2.5-21-4.4-31.7-5.5C305.6,256,302.2,259.2,299,260.7z M667.3,207.4
	c8,9.4,17.1,6.1,44.2-14.8C704.6,182.6,699.7,184.2,667.3,207.4z M729.6,255.5c-13.3,2.5-23.8,4.1-34.2,6.5
	c-2.3,0.5-3.7,4.2-5.5,6.4c2.5,1.6,5,4.9,7.3,4.6c10.5-1.3,21-3.1,31.3-5.5c3-0.7,5.5-3.9,8.3-5.9
	C734,259.2,731.2,256.8,729.6,255.5z M582,136.7c16.3-30.3,17.9-40.4,8.2-46.7C576.1,113.5,572.9,129.4,582,136.7z M298.8,332
	c2.3,4.4,4,9.4,5,9.3c13.4-1.6,26.7-3.8,39.9-6.4c1.3-0.3,3.1-5.6,2.4-6.4c-1.9-2-5.3-4-7.7-3.6C325.6,326.7,313,329.3,298.8,332z
	 M655.9,125.8c-7.8,9.3-15,17.9-22.3,26.5c-1.1,1.3-2.5,2.5-3.1,4c-0.9,2.4-2,5.1-1.5,7.4c0.4,1.5,4.7,3.7,4.9,3.5
	c9.9-11.7,19.5-23.7,28.9-35.8C662.9,131.4,659,128.3,655.9,125.8z M325.6,404.6c6.1,10.4,17.2,6.7,43.3-14.4
	C361.6,380.6,357.2,382.1,325.6,404.6z"/>
</svg>
