<?xml version="1.0" encoding="utf-8"?>
<!-- Generator: Adobe Illustrator 17.0.0, SVG Export Plug-In . SVG Version: 6.00 Build 0)  -->
<!DOCTYPE svg PUBLIC "-//W3C//DTD SVG 1.1//EN" "http://www.w3.org/Graphics/SVG/1.1/DTD/svg11.dtd">
<svg version="1.1" id="Layer_1" xmlns="http://www.w3.org/2000/svg" xmlns:xlink="http://www.w3.org/1999/xlink" x="0px" y="0px"
	 width="960px" height="560px" viewBox="0 0 960 560" enable-background="new 0 0 960 560" xml:space="preserve">
<g>
	<path d="M347.359,158.222c-22.614-1.089-42.548-22.363-59.132-46.82c-7.454-11.056-3.853-24.206,5.528-33.921
		c21.19-21.944,42.632-43.637,64.325-65.079c10.135-9.967,23.703-13.317,35.01-5.528c23.117,15.83,44.14,34.34,46.653,65.247
		c0.503,5.863,0.084,11.893-0.838,17.673C433.377,124.552,391.834,159.478,347.359,158.222z M359.755,49.506
		c1.34,10.302,6.868,17.17,17.338,17.254c10.47,0,17.17-6.701,17.17-17.003c0.084-10.302-6.533-17.086-17.003-17.254
		C366.791,32.335,361.263,39.287,359.755,49.506z"/>
	<path d="M609.183,85.689c-0.503,18.51-8.376,32.246-25.043,39.449c-21.693,9.465-43.553,18.51-65.749,26.635
		c-22.112,8.124-43.637-1.424-53.353-22.698c-5.612-12.396-10.805-25.127-15.327-37.942c-7.706-22.028,1.508-43.972,22.866-53.353
		c20.855-9.129,41.962-17.589,63.236-25.63c23.954-9.046,46.15,0.503,56.201,23.954c5.695,13.317,10.805,26.97,15.914,40.622
		C609.015,79.658,608.848,83.008,609.183,85.689z M502.309,81.249c15.327-6.701,28.645-11.391,40.622-18.426
		c3.602-2.094,5.947-12.564,3.853-16.416c-2.513-4.607-11.223-9.716-15.914-8.627c-12.229,2.764-24.289,7.873-35.178,14.071
		c-4.02,2.345-7.371,11.223-6.198,15.914C490.835,72.874,497.703,76.643,502.309,81.249z"/>
	<path d="M603.32,208.476c12.396,15.998,18.343,34.424,21.86,54.107c1.173,6.449-1.256,13.066,8.292,17.421
		c4.607,2.094,8.041,15.16,6.114,21.525c-9.8,32.916-7.371,33-38.863,14.825c-5.528-3.183-11.893-14.825-9.967-18.845
		c4.607-9.632-2.931-12.312-5.444-18.175c-7.203-17.086-9.883-37.272-20.772-51.175c-9.716-12.48,2.68-31.241-17.254-40.455
		c-8.711-4.02-11.056-21.693-16.919-34.424c15.328-6.282,29.482-12.145,45.647-18.762c3.853,15.579,17.756,27.221,11.223,45.731
		c-1.089,3.015,4.942,8.459,7.538,12.815C597.708,198.174,600.472,203.283,603.32,208.476z M623.338,321.883
		c1.424-0.503,2.764-1.005,4.188-1.424c-22.698-55.95-45.396-111.983-68.094-167.932c-1.34,0.503-2.68,1.089-4.02,1.591
		C578.025,209.984,600.64,265.933,623.338,321.883z"/>
	<path d="M474.073,176.684c14.63,10.173,24.482,24.087,32.625,39.697c2.684,5.109,2.388,11.308,11.558,12.451
		c4.422,0.545,10.75,10.618,10.81,16.473c0.441,30.237,2.504,29.667-28.744,22.696c-5.483-1.217-13.899-9.32-13.34-13.206
		c1.332-9.306-5.707-9.572-9.364-13.835c-10.554-12.456-18.126-28.709-30.937-37.521c-11.451-7.924-5.981-26.954-25.156-29.441
		c-8.377-1.082-15.005-15.312-23.286-24.462c11.222-9.317,21.569-17.973,33.406-27.791c7.342,12.073,22.092,18.19,21.481,35.463
		c-0.12,2.82,6.381,5.805,9.71,8.779C466.644,169.508,470.313,173.072,474.073,176.684z M520.777,266.686
		c1.064-0.797,2.057-1.573,3.143-2.3c-33.814-41.024-67.65-82.118-101.464-123.142c-0.993,0.776-1.965,1.621-2.958,2.396
		C453.219,184.617,486.963,225.663,520.777,266.686z"/>
</g>
</svg>
