<?xml version="1.0" encoding="utf-8"?>
<!-- Generator: Adobe Illustrator 17.0.0, SVG Export Plug-In . SVG Version: 6.00 Build 0)  -->
<!DOCTYPE svg PUBLIC "-//W3C//DTD SVG 1.1//EN" "http://www.w3.org/Graphics/SVG/1.1/DTD/svg11.dtd">
<svg version="1.1" id="Layer_1" xmlns="http://www.w3.org/2000/svg" xmlns:xlink="http://www.w3.org/1999/xlink" x="0px" y="0px"
	 width="960px" height="560px" viewBox="0 0 960 560" enable-background="new 0 0 960 560" xml:space="preserve">
<path d="M146.49,281.1c-7.4,2.5-13.6,4.7-20,6.9c-7.2-57,35.8-117,92.1-130c11.5-2.6,22.5-7.9,34-9.4c26.7-3.4,49.4,7.4,70.5,22.7
	c25.3,18.4,30.5,17.8,56.7,2.1c13.6-8.1,29.7-11.8,44-18.8c5.9-2.9,9.6-10.2,15.2-13.9c17.7-11.6,36.1-21.9,53.8-33.5
	c26.3-17.2,53.6-20.9,82.9-8.6c1.9,0.8,4,1.2,6,1.6c0.4,0.1,0.9-0.5,1.4-0.7c-9.9-21.2-20.5-27-42-22.2c-11.8,2.6-23.3,6.9-35.1,9.6
	c-3,0.6-6.9-2.5-10.4-3.9c2-2.7,3.6-7.3,6.1-7.9c18.3-4.6,36.7-10.2,55.4-11.9c17-1.5,27.4,11.6,36.1,24.7
	c5.1,7.6,9.9,15.6,15.8,24.7c6.8-19.7,30-30.5,51.4-23.1c17.2,5.9,9.3,22.6,9.3,34.5c-0.1,28.3-22.5,12.8-37.8,17.1
	c13.5,14.1,26,27.2,38.8,40.7c28.8-18.5,58.5-26.6,90.3-16.9c14.8,4.5,31.8,10.5,41.5,21.4c27,30.2,38.6,67.3,27.8,107.4
	c-10.8,40.2-38.8,65-80.1,72c-40.2,6.7-70.3-10.4-98-39.4c-17.9-18.8-24.8-38.1-23.5-62.3c1.3-25,9.4-47.5,27.4-68.4
	c-12.7-15.5-25.1-30.7-38.5-47.2c-28.4,36-45.3,75.3-57.8,117.3c5.4,3.6,10.5,6.4,14.7,10.1c17.5,15.6,15.9,42.6-4.5,53.9
	c-10.6,5.8-23.9,9-36.1,9.1c-33.8,0.4-67.7-1.9-101.4-2.5c-34.2-0.5-68.5-0.5-102.7-0.4c-4.4,0-9.4,1.5-12.8,4.1
	C246.19,392.6,172.39,367.9,146.49,281.1z M681.39,225.7c-22.5,29.9-19.1,67.8,7.8,91.6c26.8,23.6,66.7,22.6,92.1-2.4
	c25.3-24.9,27-65.4,4.1-92.1c-22.5-26-60.5-31.3-86.2-11.8c3.6,9.1,9.2,10.3,18.6,6.9c24.3-8.7,49.1,0.8,61.7,22.1
	c12.7,21.4,8.8,48.4-9.5,65.2c-18,16.6-44.1,18.6-64.4,4.9c-21-14.1-29-40.2-18.2-64.3C691.39,236.9,690.79,231.3,681.39,225.7z
	 M312.59,260.8c-2.5-35-31.6-61.7-66.3-61.1s-63.9,28.6-65.7,62.9c-1.6,32.8,20.1,62.5,48.6,65.9c3.6-11.4,2.7-19.9-9.2-27.7
	c-15.5-10-20.5-29.4-15.4-46.4c5.3-17.8,20.9-30.5,39.2-32.1c17-1.5,36.2,8.1,42.3,24.9C291.49,261.7,300.09,263.4,312.59,260.8z
	 M470.59,169.5c0-0.9,0.1-1.8,0.1-2.7c15.1-2.2,30.1-4.3,45.3-6.5c0.1,0.9,0.3,1.9,0.4,2.8c-2.3,1.2-4.6,2.4-3.1,1.6
	c0,12.7,0,24,0,36.1c14.9-6.6,4.2-27.1,21.6-28.9c-1.5-1.8-3.4-4.3-5.3-6.8c0.6-0.6,1.4-1.3,2-1.9c13,7.7,26,15.5,39.2,23.1
	c-0.5,1-1,2-1.5,3c-3.1-0.9-6.2-1.7-4.7-1.4c-6.2,9.4-11.3,17-16.4,24.8c1.3,1.5,2.6,3.2,3.9,4.7c5.3-3.7,12.3-6.3,15.6-11.3
	c10.7-16.3,19.8-33.6,29.7-50.4c5.1-8.6,6-16.1-3.5-24.5c-5.4,19.1-17.9,21.3-33.8,17.8c-34.5-7.6-66.4,4.8-101.2,13.5
	c11.7,14.8,6,38.1,28.6,47.7c-1.6-15.7-13.7-25-10.1-39.4C476.89,170.9,473.69,170.2,470.59,169.5z M339.69,309.8
	c65.1,5.2,129.1,10.6,193.1,15.2c8.2,0.6,18,0.2,24.5-3.8c7.1-4.4,15-13.3,15.6-20.7c0.5-7.5-7.7-15.5-12.1-23.3
	c-1.5,0.8-3,1.5-4.6,2.4c-1.2,5.6-3,11.3-3.4,16.9c-1,15.7-8.1,22.2-24.5,20.9c-30.5-2.5-61.1-3.4-91.6-5.2
	c-6.3-0.4-13.6-0.2-18.4-3.3c-18.8-12.1-43.5,0.9-62.3-17.5C347.59,283.1,342.19,298.1,339.69,309.8z M723.29,240.8
	c4.6,1.1,9.1,2.4,13.7,3.4c12.5,2.6,19.8,10,19,23.1c-0.7,12.3-8.4,19.7-20.3,20c-12.7,0.5-20.2-6.9-22.4-19.8
	c-0.8-4.9-3.2-9.7-5.8-17.4c-8,20.2-4.1,35.1,9.2,43.9c12.2,8.2,28.4,7.1,39.4-2.6c11.7-10.4,14.7-26.5,7.1-40.2
	C755.39,237,741.19,231.9,723.29,240.8z M261.69,288.2c-17.8,0.5-32.1-0.3-35-16.8c-1.2-6.7,2.7-17.3,8-21.7
	c14.8-12.4,26-0.3,38.4,12.5c-7.4-20.4-21.5-27.3-36.7-21.1c-14,5.7-20.9,22.9-14.5,36.8C228.69,292.3,243.39,297.3,261.69,288.2z
	 M272.49,305c28.8,4.6,30.3,4,34.4-14.1C291.09,284.7,280.49,291.2,272.49,305z"/>
</svg>
