<?xml version="1.0" encoding="utf-8"?>
<!-- Generator: Adobe Illustrator 17.0.0, SVG Export Plug-In . SVG Version: 6.00 Build 0)  -->
<!DOCTYPE svg PUBLIC "-//W3C//DTD SVG 1.1//EN" "http://www.w3.org/Graphics/SVG/1.1/DTD/svg11.dtd">
<svg version="1.1" id="Layer_1" xmlns="http://www.w3.org/2000/svg" xmlns:xlink="http://www.w3.org/1999/xlink" x="0px" y="0px"
	 width="960px" height="560px" viewBox="0 0 960 560" enable-background="new 0 0 960 560" xml:space="preserve">
<g>
	<path d="M453.85,181.2c17.7,25.8,17.7,25.8,47.5,24.6c0.6,22.3,8.3,38.3,37.8,32.9c-9.4,25.5-5.2,42.6,24.3,46.6
		c-19.5,21.7-15.2,38.6,5.7,51.8c-22.3,23.5-22.3,23.5-9.2,52.9c-24.3,5.2-31.5,20-22,42.4c-28.9,10.3-28.9,10.3-38.6,38.6
		c-22.6-9.4-37.5-1.4-43.5,24.6c-20-16.6-36.9-16.6-50.7,8c-14.3-20.6-30.6-28.3-51.8-7.4c-6.9-25.5-20.6-36.6-44.6-24.6
		c-8.3-30.3-8.3-30.3-37.8-38.6c8.6-22,2.6-38.1-25.2-43.8c17.2-20.3,17.2-38.1-8.6-51.2c23.8-14.3,26.9-30.9,8.9-51.5
		c25.2-6.9,35.8-20.9,22.9-46.9c26.9,2,39.8-8.3,36.9-35.5c23.8,7.7,40.9,3.4,46.1-24.6c20.3,16,37.5,16.3,51.5-8.3
		C418.15,192.9,434.75,198.3,453.85,181.2z M403.25,377.8c22.6,0.6,40.4-15.7,41.5-38.1c0.9-22.6-16.3-41.5-38.9-42.4
		c-22-0.9-41.5,17.7-41.8,39.8C363.45,358.6,381.15,377.2,403.25,377.8z M294.25,342.6c-1.4,0.6-2.6,1.1-4,1.4
		c7.4,18.3,14.3,36.6,22.6,54.7c3.7,8,11.2,12.6,20,7.2c9.4-6,6.9-13.2,2.9-22.3c-6-13.7-11.2-28.3-14-42.9c-2-9.4-4-17.5-14.9-16.9
		C296.25,324.5,293.35,332.8,294.25,342.6z M519.95,340.9c-7.4-6.9-12.3-14.6-18.9-16.3c-9.7-2.3-12,6.3-14.3,15.2
		c-3.7,15.5-8.9,30.6-14.9,45.2c-3.4,8.6-4.9,15.5,3.4,20.9c8,5.2,15.7,2,19.2-5.7C503.65,381.8,510.85,362.6,519.95,340.9z
		 M404.65,449.6c11.4-2.3,22.9-3.4,33.2-7.4c4.3-1.7,10-11.2,8.6-14.6c-2-4.9-9.7-10-15.2-10.3c-17.7-1.1-35.5-1.1-53.2,0
		c-5.7,0.3-11.2,6-16.6,9.2c3.1,5.4,5.2,14,10,16C381.75,446.5,393.25,447.3,404.65,449.6z M433.55,229.8c-4.6,4.3-11.2,7.7-11.4,12
		c-0.6,4.9,2.6,12.3,6.6,15.5c14.3,11.7,29.5,22.9,45.2,32.9c4.3,2.9,14,3.4,17.2,0.6c3.4-3.1,5.4-13.7,2.6-17.2
		c-8.6-10.6-18.6-20.3-29.5-28.6C455.65,239,444.75,235.5,433.55,229.8z M378.05,231.8c-19.2-0.3-61.2,30-64.4,44.9
		c-0.9,4.3,1.4,11.2,4.6,13.5c3.7,2.6,12.6,3.4,15.2,0.9c14.3-15.2,30-27.2,49.2-35.5c3.1-1.4,5.4-10,4.3-14.3
		C385.75,237.3,380.05,233.8,378.05,231.8z"/>
	<path d="M576.95,61.8c18,8.3,18,8.3,33.8-5.4c9.4,10.9,20.3,18,33.5,3.1c6,15.7,13.7,24.3,30.3,15.7c2.9,14.3,4.9,29.2,26,23.8
		c-5.2,16.9-2.3,28.3,15.7,32.1c-9.4,13.7-9.7,25.8,6.6,35.2c-15.2,9.4-17.2,20.6-6.3,34.1c-14.6,5.4-22.9,13.7-15.5,30.6
		c-14.9,1.7-26.6,6-24,26c-16.6-6.3-27.8-2-31.2,15.7c-13.7-10-25.2-10.6-34.6,6.3c-9.4-15.2-20.9-17.7-33.5-7.2
		c-11.4-18.3-11.4-18.3-32.1-16.6c0.3-14.9-6.3-24.6-24-22.6c2.9-14.6,4-28-16.6-30c8.6-14.3,12-26.6-4.9-34.3
		c14-17.2,14-17.2,6-36.1c13.7-4.6,21.7-13.2,14.3-30c15.5-1.7,28-5.7,24-24C565.75,78.7,565.75,78.7,576.95,61.8z M608.75,193.5
		c14.3,1.1,27.8-10.6,28.9-25.5c1.1-14.6-10.6-28-25.2-28.9c-15.2-0.9-27.8,10-28.9,25.2C582.35,179.2,593.85,192.3,608.75,193.5z
		 M569.25,208.9c-1.7,1.1-4.6,2.3-5.7,4.3c-1.1,2-1.1,6.9,0,7.4c11.2,5.7,22.3,11.2,34.1,16c1.1,0.6,5.2-2.9,5.7-5.2s-0.6-6.6-2-7.4
		C590.95,218.9,580.65,214.4,569.25,208.9z M685.45,168c-3.1-2.9-6.3-6-9.7-8.9c-2.9,3.1-6.9,5.7-8.3,9.4c-2.6,6.9-4.6,14.6-5.2,22
		c-0.3,3.7,2.9,7.7,4.3,11.7c3.4-2,8.6-2.9,10-5.7C680.25,188,682.25,179.2,685.45,168z M580.05,111.1c-6.3-0.9-12.9-3.7-14.9-1.7
		c-7.4,7.2-14,15.5-19.7,24c-1.4,2,1.7,7.2,2.6,10.9c3.7-1.1,8.3-1.4,10.9-3.7c6-6,11.2-12.9,16.3-19.7
		C576.65,119.1,577.25,116.8,580.05,111.1z M535.75,169.7c3.1,10.6,5.2,18.9,8.6,26.6c1.1,2.9,6.6,3.7,9.7,5.7c1.4-4,4.3-8,4-11.7
		c-0.6-6.9-2.6-14-5.2-20.6c-1.7-4-5.4-7.4-8.3-11.2C541.75,162.3,538.55,166,535.75,169.7z M622.75,109.3c0.6,0.9,0.9,1.7,1.4,2.6
		c2.9-2.6,7.7-4.9,7.7-7.7c0.3-3.1-3.4-8.9-6-9.2c-10.3-1.1-20.6-0.9-30.9,0c-2.3,0.3-5.4,6-5.4,9.4c0,2,5.2,5.4,8,5.7
		C605.85,110.8,614.45,109.6,622.75,109.3z M672.25,148.8c1.7-6.6,5.2-12,3.7-14.6c-5.4-8.9-12-16.9-19.2-24.3
		c-1.7-1.7-7.4,0.3-11.2,0.3c0.3,3.7-0.3,8.3,1.4,11.4c4.3,6.9,9.7,12.9,14.9,18.9C663.65,143.1,666.55,144.5,672.25,148.8z
		 M627.35,239.6c10.3-5.7,19.7-10.6,28.6-16.6c2-1.1,2.3-7.7,0.9-9.7c-1.4-2-6.9-3.1-9.7-2.3c-8.3,3.1-16.6,6.9-24,11.7
		c-2.9,1.7-4.9,6.6-4.9,10C618.45,234.7,623.35,236.7,627.35,239.6z"/>
</g>
</svg>
